<?xml version="1.0" encoding="UTF-8" standalone="no"?>
<svg width="178px" height="10px" viewBox="0 0 178 10" version="1.1" xmlns="http://www.w3.org/2000/svg">
    <!-- Generator: Sketch 3.8.3 (29802) - http://www.bohemiancoding.com/sketch -->
    <title>Slice 5</title>
    <desc>Created with Sketch.</desc>
    <defs></defs>
    <g id="News" stroke="none" stroke-width="1" fill="none" fill-rule="evenodd">
        <path d="M101.267949,3.83012702 L98,3.83012702 L98,5.83012702 L101.267949,5.83012702 L99.6339746,8.66025404 L101.366025,9.66025404 L103,6.83012702 L104.633975,9.66025404 L106.366025,8.66025404 L104.732051,5.83012702 L108,5.83012702 L108,3.83012702 L104.732051,3.83012702 L106.366025,1 L104.633975,1.95399252e-14 L103,2.83012702 L101.366025,1.95399252e-14 L99.6339746,1 L101.267949,3.83012702 Z M87.2679492,3.83012702 L84,3.83012702 L84,5.83012702 L87.2679492,5.83012702 L85.6339746,8.66025404 L87.3660254,9.66025404 L89,6.83012702 L90.6339746,9.66025404 L92.3660254,8.66025404 L90.7320508,5.83012702 L94,5.83012702 L94,3.83012702 L90.7320508,3.83012702 L92.3660254,1 L90.6339746,1.95399252e-14 L89,2.83012702 L87.3660254,1.95399252e-14 L85.6339746,1 L87.2679492,3.83012702 Z M73.2679492,3.83012702 L70,3.83012702 L70,5.83012702 L73.2679492,5.83012702 L71.6339746,8.66025404 L73.3660254,9.66025404 L75,6.83012702 L76.6339746,9.66025404 L78.3660254,8.66025404 L76.7320508,5.83012702 L80,5.83012702 L80,3.83012702 L76.7320508,3.83012702 L78.3660254,1 L76.6339746,1.95399252e-14 L75,2.83012702 L73.3660254,1.95399252e-14 L71.6339746,1 L73.2679492,3.83012702 Z M0,4 L60,4 L60,6 L0,6 L0,4 Z M118,4 L178,4 L178,6 L118,6 L118,4 Z" id="Combined-Shape" fill="#666666"></path>
    </g>
</svg>